<svg width="50" height="40" viewBox="0 0 50 40" fill="none" xmlns="http://www.w3.org/2000/svg">
<path d="M14 0C11.0898 0 8.60938 2.07031 8.15625 4.875C8.14453 4.94141 8.10156 4.99609 8.09375 5.0625H8.125C8.08984 5.21484 8.05078 5.35547 8.03125 5.5C7.72656 5.71094 7.43359 5.9375 7.1875 6.1875C6.01172 7.375 5.51562 8.86719 5.15625 10.0938C5.15234 10.1016 5.16016 10.1172 5.15625 10.125C3.85938 14.1133 1.53516 23.5547 1 25.7188C0.375 27.0234 0 28.4609 0 30C0 35.5117 4.48828 40 10 40C15.3867 40 19.7695 35.7148 19.9688 30.375C21.1016 31.2109 22.7422 32 25 32C27.2578 32 28.8984 31.2109 30.0312 30.375C30.2305 35.7148 34.6133 40 40 40C45.5117 40 50 35.5117 50 30C50 28.8711 49.8164 27.793 49.4688 26.7812C49.3047 26.125 46.3516 14.3906 45.0625 10.125V10.0938C44.6562 8.875 44.1172 7.38281 42.9375 6.1875C42.6445 5.89062 42.3125 5.61719 41.9375 5.375C41.918 5.26953 41.9023 5.17188 41.875 5.0625H41.9062C41.8984 4.99609 41.8555 4.94141 41.8438 4.875C41.3906 2.07031 38.9102 0 36 0C32.6758 0 30 2.67578 30 6C30 6.73438 30.1211 7.44531 30.3438 8.09375C29.8789 8.63281 29.4883 9.12109 29.2188 9.375C29.1055 9.48047 29.0977 9.47656 29.0625 9.5C27.9258 8.66406 26.5547 8.09375 25.0938 8.09375C23.6367 8.09375 22.2031 8.61719 21.0938 9.5C21.0547 9.47656 21.0508 9.48047 20.9375 9.375C20.6445 9.10156 20.2031 8.56641 19.6875 7.96875C19.8867 7.35156 20 6.69141 20 6C20 2.67578 17.3242 0 14 0ZM14 2C16.2773 2 18 3.72266 18 6C18 6.08594 17.9727 6.16406 17.9688 6.25C16.6992 5.16016 15.0664 4.1875 12.9062 4.1875C11.9375 4.1875 11.0703 4.28125 10.3125 4.46875C10.8633 3.01562 12.293 2 14 2ZM36 2C37.6914 2 39.0938 3.00391 39.6562 4.4375C38.957 4.27734 38.1875 4.1875 37.3125 4.1875C35.0703 4.1875 33.3359 5.23047 32.0312 6.375C32.0195 6.24609 32 6.125 32 6C32 3.72266 33.7227 2 36 2ZM12.9062 6.1875C14.9023 6.1875 16.2812 7.26172 17.4375 8.46875C17.4492 8.97266 17.8398 9.39062 18.3438 9.4375C18.7695 9.93359 19.1758 10.4219 19.5938 10.8125C19.8789 11.0781 20.168 11.332 20.625 11.4688C21.082 11.6055 21.7305 11.5039 22.125 11.1875L22.1562 11.1562C22.8242 10.5625 24.0508 10.0938 25.0938 10.0938C26.1367 10.0938 27.2344 10.5234 28.0625 11.1875V11.1562H28.0938C28.4805 11.4727 29.1172 11.6055 29.5625 11.4688C30.0195 11.3281 30.2812 11.0781 30.5625 10.8125C30.9844 10.4141 31.4023 9.91406 31.8438 9.40625C32.1914 9.30078 32.457 9.01172 32.5312 8.65625C33.7383 7.37109 35.207 6.1875 37.3125 6.1875C38.6289 6.1875 39.5664 6.38672 40.2812 6.71875C40.4023 6.83984 40.5547 6.92578 40.7188 6.96875C40.75 6.98047 40.7812 6.99219 40.8125 7C41.082 7.17578 41.3242 7.38281 41.5312 7.59375C42.3203 8.39453 42.7656 9.51562 43.1562 10.6875C43.1602 10.6953 43.1523 10.7109 43.1562 10.7188C43.9258 13.2695 45.207 18.1172 46.25 22.1875C44.5352 20.8086 42.3633 20 40 20C35.4688 20 31.6289 23.043 30.4062 27.1875C30.332 27.25 30.2695 27.3242 30.2188 27.4062C30.2188 27.4062 28.9297 30 25 30C21.0703 30 19.7812 27.4062 19.7812 27.4062C19.7305 27.3125 19.668 27.2305 19.5938 27.1562C18.3633 23.0273 14.5234 20 10 20C7.73438 20 5.64844 20.7578 3.96875 22.0312C5.00391 17.9688 6.25781 13.1953 7.0625 10.7188V10.6875C7.40234 9.52344 7.80469 8.39453 8.59375 7.59375C9.38281 6.79297 10.5938 6.1875 12.9062 6.1875ZM25 20C22.8008 20 21 21.8008 21 24C21 26.1992 22.8008 28 25 28C27.1992 28 29 26.1992 29 24C29 21.8008 27.1992 20 25 20ZM10 22C14.4297 22 18 25.5703 18 30C18 34.4297 14.4297 38 10 38C5.57031 38 2 34.4297 2 30C2 29.3984 2.0625 28.8125 2.1875 28.25C2.38672 28.0977 2.51953 27.875 2.5625 27.625C2.5625 27.625 2.82422 26.5469 2.875 26.3438C4.19922 23.7617 6.89062 22 10 22ZM25 22C26.1172 22 27 22.8828 27 24C27 25.1172 26.1172 26 25 26C23.8828 26 23 25.1172 23 24C23 22.8828 23.8828 22 25 22ZM40 22C43.4844 22 46.4297 24.2148 47.5312 27.3125C47.5352 27.3281 47.625 27.6562 47.625 27.6562C47.6523 27.7578 47.6953 27.8516 47.75 27.9375C47.9258 28.5938 48 29.2852 48 30C48 34.4297 44.4297 38 40 38C35.5703 38 32 34.4297 32 30C32 25.5703 35.5703 22 40 22ZM4.90625 28.9688C4.86328 28.9766 4.82031 28.9883 4.78125 29C4.31641 29.1055 3.98828 29.5234 4 30C4 33.3242 6.67578 36 10 36C10.3594 36.0039 10.6953 35.8164 10.8789 35.5039C11.0586 35.1914 11.0586 34.8086 10.8789 34.4961C10.6953 34.1836 10.3594 33.9961 10 34C7.72266 34 6 32.2773 6 30C6.01172 29.7109 5.89453 29.4336 5.6875 29.2383C5.47656 29.0391 5.19141 28.9414 4.90625 28.9688ZM35.9062 28.9688C35.8633 28.9766 35.8203 28.9883 35.7812 29C35.3164 29.1055 34.9883 29.5234 35 30C35 33.3242 37.6758 36 41 36C41.3594 36.0039 41.6953 35.8164 41.8789 35.5039C42.0586 35.1914 42.0586 34.8086 41.8789 34.4961C41.6953 34.1836 41.3594 33.9961 41 34C38.7227 34 37 32.2773 37 30C37.0117 29.7109 36.8945 29.4336 36.6875 29.2383C36.4766 29.0391 36.1914 28.9414 35.9062 28.9688Z" fill="#216E7A"/>
</svg>
